<svg version="1.2" xmlns="http://www.w3.org/2000/svg" viewBox="0 0 1024 1024" width="1024" height="1024">
	<defs>
		<linearGradient id="g1" x2="1" gradientUnits="userSpaceOnUse" gradientTransform="matrix(0,1024,-1024,0,512,0)">
			<stop offset="0" stop-color="#fb8d3c"/>
			<stop offset=".5" stop-color="#fcd978"/>
			<stop offset="1" stop-color="#f9863a"/>
		</linearGradient>
		<linearGradient id="g2" x2="1" gradientUnits="userSpaceOnUse" gradientTransform="matrix(120.064,613.327,-376.819,73.766,650.897,144.817)">
			<stop offset="0" stop-color="#ff4a22"/>
			<stop offset=".55" stop-color="#fb331f"/>
			<stop offset="1" stop-color="#f4261d"/>
		</linearGradient>
		<linearGradient id="g3" x2="1" gradientUnits="userSpaceOnUse" gradientTransform="matrix(840,195,-68.982,297.153,79.594,761.747)">
			<stop offset="0" stop-color="#13b9c8"/>
			<stop offset="1" stop-color="#0fb1bf"/>
		</linearGradient>
		<linearGradient id="g4" x2="1" gradientUnits="userSpaceOnUse" gradientTransform="matrix(880,189,-56.748,264.225,59.459,837.518)">
			<stop offset="0" stop-color="#0b91a7"/>
			<stop offset="1" stop-color="#07869f"/>
		</linearGradient>
	</defs>
	<style>
		.s0 { fill: url(#g1) } 
		.s1 { fill: url(#g2) } 
		.s2 { fill: #022b55;stroke: #022b55;stroke-linejoin: round;stroke-width: 1.3 } 
		.s3 { fill: #03c65d;stroke: #03c65d;stroke-linecap: round;stroke-linejoin: round;stroke-width: 1.5 } 
		.s4 { fill: url(#g3) } 
		.s5 { fill: url(#g4) } 
	</style>
	<g id="Layer 1">
		<path class="s0" d="m0 0h1024v1024h-1024z"/>
		<path class="s1" d="m863.97 755.81c98.41-317.61-145.97-610.81-145.97-610.81l-11 58-18 74-22 73-24 69-26 66-32 72-64 124c0 0 66.57 6.61 76.77 8.22 0 0 71.65 12.86 71.65 12.86 0 0 60.02 14.87 79.58 19.92 29.05 7.51 101 34 101 34 7.59 2.47 11.42 1.89 13.93-0.1"/>
		<path class="s2" d="m172 629l23 47 26 45 20 30 27 33 67.92 20.8 149.08 62.2 34 12 41 11 54 8h44c0 0 23.31 0.36 55.48-6.19 29.4-5.98 22.17-3.49 50.41-13.6 8.65-3.09 5.91-1.49 30.11-19.21 16.09-11.78 17.03-11.5 29-21 5.3-4.2 26-25 26-25l23.53-27.33c2.44-2.98 0.29-7.21-2.31-7.21 0 0-57.57-0.9-87.22-5.46-31.4-4.83-115-21-115-21l-104-28-78-27h-4l-23 42-4 4h-5z"/>
		<path class="s3" d="m722.13 101.21l-5.17 0.02-35.71 67.06-35.25 64.71-107 178-82 128-76 109-16-4-218-82-3 2v6l27.01 57.7 40.97 16.71 234.02 95.59c0 0 8.32 3.61 8.8 3.76 0.41 0.13 24.2-42.76 24.2-42.76l50-98 45-95 41-94 58-151 31-96z"/>
		<path class="s4" d="m0 854c139.45-112.03 239.48-93.52 402.05-22.54 139.27 60.82 204.95 81.84 327.62 55.1 51.4-11.21 56.47-19.19 94.48-25.01 61.95-9.48 127.66-4.09 199.85 42.33v120.12h-1024z"/>
		<path class="s5" d="m0 932c137.98-111.65 240.01-89.83 384.63-35.6 43.15 16.18 151.9 85.41 303 56.31 49.72-9.57 102.84-46.43 169.36-49.98 65.28-3.48 119.37 20.02 167.01 62.79v58.48h-1024z"/>
	</g>
</svg>